<svg xmlns="http://www.w3.org/2000/svg" xmlns:xlink="http://www.w3.org/1999/xlink" width="150" zoomAndPan="magnify" viewBox="0 0 112.5 112.499997" height="150" preserveAspectRatio="xMidYMid meet" version="1.0"><defs><clipPath id="c99e68ae98"><path d="M 48 98 L 64 98 L 64 112.003906 L 48 112.003906 Z M 48 98 " clip-rule="nonzero"/></clipPath><clipPath id="f9b5ded7c8"><path d="M 98 48 L 112.003906 48 L 112.003906 64 L 98 64 Z M 98 48 " clip-rule="nonzero"/></clipPath></defs><path fill="#fb9c01" d="M 94.132812 56.003906 C 94.132812 57.253906 94.070312 58.5 93.949219 59.742188 C 93.828125 60.984375 93.644531 62.21875 93.402344 63.441406 C 93.15625 64.667969 92.855469 65.878906 92.492188 67.074219 C 92.128906 68.265625 91.707031 69.441406 91.230469 70.59375 C 90.753906 71.75 90.21875 72.875 89.632812 73.976562 C 89.042969 75.078125 88.402344 76.148438 87.707031 77.1875 C 87.011719 78.226562 86.269531 79.226562 85.476562 80.191406 C 84.6875 81.15625 83.847656 82.082031 82.964844 82.964844 C 82.082031 83.847656 81.160156 84.6875 80.191406 85.476562 C 79.226562 86.269531 78.226562 87.011719 77.1875 87.707031 C 76.148438 88.402344 75.078125 89.042969 73.976562 89.628906 C 72.875 90.21875 71.75 90.753906 70.59375 91.230469 C 69.441406 91.707031 68.265625 92.128906 67.074219 92.492188 C 65.878906 92.855469 64.667969 93.15625 63.441406 93.398438 C 62.21875 93.644531 60.984375 93.828125 59.742188 93.949219 C 58.5 94.070312 57.253906 94.132812 56.003906 94.132812 C 54.753906 94.132812 53.511719 94.070312 52.265625 93.949219 C 51.023438 93.828125 49.789062 93.644531 48.566406 93.398438 C 47.339844 93.15625 46.132812 92.855469 44.9375 92.492188 C 43.742188 92.128906 42.566406 91.707031 41.414062 91.230469 C 40.257812 90.753906 39.132812 90.21875 38.03125 89.628906 C 36.929688 89.042969 35.859375 88.402344 34.820312 87.707031 C 33.78125 87.011719 32.78125 86.269531 31.816406 85.476562 C 30.851562 84.6875 29.925781 83.847656 29.042969 82.964844 C 28.160156 82.082031 27.324219 81.15625 26.53125 80.191406 C 25.738281 79.226562 24.996094 78.226562 24.300781 77.1875 C 23.609375 76.148438 22.964844 75.078125 22.378906 73.976562 C 21.789062 72.875 21.253906 71.75 20.777344 70.59375 C 20.300781 69.441406 19.878906 68.265625 19.515625 67.074219 C 19.15625 65.878906 18.851562 64.667969 18.609375 63.441406 C 18.363281 62.21875 18.179688 60.984375 18.058594 59.742188 C 17.9375 58.5 17.875 57.253906 17.875 56.003906 C 17.875 54.753906 17.9375 53.507812 18.058594 52.265625 C 18.179688 51.023438 18.363281 49.789062 18.609375 48.566406 C 18.851562 47.339844 19.15625 46.132812 19.515625 44.9375 C 19.878906 43.742188 20.300781 42.566406 20.777344 41.414062 C 21.253906 40.257812 21.789062 39.132812 22.378906 38.03125 C 22.964844 36.929688 23.609375 35.859375 24.300781 34.820312 C 24.996094 33.78125 25.738281 32.78125 26.53125 31.816406 C 27.324219 30.851562 28.160156 29.925781 29.042969 29.042969 C 29.925781 28.160156 30.851562 27.324219 31.816406 26.53125 C 32.78125 25.738281 33.78125 24.996094 34.820312 24.300781 C 35.859375 23.605469 36.929688 22.964844 38.03125 22.378906 C 39.132812 21.789062 40.257812 21.253906 41.414062 20.777344 C 42.566406 20.300781 43.742188 19.878906 44.9375 19.515625 C 46.132812 19.15625 47.339844 18.851562 48.566406 18.609375 C 49.789062 18.363281 51.023438 18.179688 52.265625 18.058594 C 53.511719 17.9375 54.753906 17.875 56.003906 17.875 C 57.253906 17.875 58.5 17.9375 59.742188 18.058594 C 60.984375 18.179688 62.21875 18.363281 63.441406 18.609375 C 64.667969 18.851562 65.878906 19.15625 67.074219 19.515625 C 68.265625 19.878906 69.441406 20.300781 70.59375 20.777344 C 71.75 21.253906 72.875 21.789062 73.976562 22.378906 C 75.078125 22.964844 76.148438 23.605469 77.1875 24.300781 C 78.226562 24.996094 79.226562 25.738281 80.191406 26.53125 C 81.160156 27.324219 82.082031 28.160156 82.964844 29.042969 C 83.847656 29.925781 84.6875 30.851562 85.476562 31.816406 C 86.269531 32.78125 87.011719 33.78125 87.707031 34.820312 C 88.402344 35.859375 89.042969 36.929688 89.632812 38.03125 C 90.21875 39.132812 90.753906 40.257812 91.230469 41.414062 C 91.707031 42.566406 92.128906 43.742188 92.492188 44.9375 C 92.855469 46.132812 93.15625 47.339844 93.402344 48.566406 C 93.644531 49.789062 93.828125 51.023438 93.949219 52.265625 C 94.070312 53.507812 94.132812 54.753906 94.132812 56.003906 Z M 94.132812 56.003906 " fill-opacity="1" fill-rule="nonzero"/><path fill="#fb9c01" d="M 48.476562 13.039062 L 56.003906 0 L 63.53125 13.039062 Z M 48.476562 13.039062 " fill-opacity="1" fill-rule="nonzero"/><path fill="#fb9c01" d="M 28.003906 22.5625 L 28 7.503906 L 41.039062 15.035156 Z M 28.003906 22.5625 " fill-opacity="1" fill-rule="nonzero"/><path fill="#fb9c01" d="M 15.035156 41.042969 L 7.503906 28.003906 L 22.558594 28.003906 Z M 15.035156 41.042969 " fill-opacity="1" fill-rule="nonzero"/><path fill="#fb9c01" d="M 13.039062 63.53125 L 0 56.007812 L 13.039062 48.476562 Z M 13.039062 63.53125 " fill-opacity="1" fill-rule="nonzero"/><path fill="#fb9c01" d="M 22.558594 84.003906 L 7.503906 84.007812 L 15.035156 70.96875 Z M 22.558594 84.003906 " fill-opacity="1" fill-rule="nonzero"/><path fill="#fb9c01" d="M 41.039062 96.976562 L 28.003906 104.507812 L 28.003906 89.449219 Z M 41.039062 96.976562 " fill-opacity="1" fill-rule="nonzero"/><g clip-path="url(#c99e68ae98)"><path fill="#fb9c01" d="M 63.53125 98.96875 L 56.003906 112.011719 L 48.476562 98.96875 Z M 63.53125 98.96875 " fill-opacity="1" fill-rule="nonzero"/></g><path fill="#fb9c01" d="M 84.003906 89.449219 L 84.007812 104.507812 L 70.96875 96.976562 Z M 84.003906 89.449219 " fill-opacity="1" fill-rule="nonzero"/><path fill="#fb9c01" d="M 96.976562 70.96875 L 104.507812 84.007812 L 89.449219 84.003906 Z M 96.976562 70.96875 " fill-opacity="1" fill-rule="nonzero"/><g clip-path="url(#f9b5ded7c8)"><path fill="#fb9c01" d="M 98.96875 48.476562 L 112.007812 56.003906 L 98.96875 63.53125 Z M 98.96875 48.476562 " fill-opacity="1" fill-rule="nonzero"/></g><path fill="#fb9c01" d="M 89.449219 28.003906 L 104.503906 28 L 96.976562 41.042969 Z M 89.449219 28.003906 " fill-opacity="1" fill-rule="nonzero"/><path fill="#fb9c01" d="M 70.96875 15.035156 L 84.003906 7.503906 L 84.003906 22.5625 Z M 70.96875 15.035156 " fill-opacity="1" fill-rule="nonzero"/></svg>